<?xml version="1.0" standalone="no"?>
<!DOCTYPE svg PUBLIC "-//W3C//DTD SVG 20010904//EN"
 "http://www.w3.org/TR/2001/REC-SVG-20010904/DTD/svg10.dtd">
<svg version="1.0" xmlns="http://www.w3.org/2000/svg"
 width="1024.000000pt" height="1024.000000pt" viewBox="0 0 1024.000000 1024.000000"
 preserveAspectRatio="xMidYMid meet">
<metadata>
Created by potrace 1.11, written by Peter Selinger 2001-2013
</metadata>
<g transform="translate(0.000000,1024.000000) scale(0.100000,-0.100000)"
fill="#000000" stroke="none">
<path d="M870 7200 c0 -297 2 -540 4 -540 2 0 79 -23 172 -51 93 -28 183 -55
199 -59 29 -8 71 -21 188 -56 28 -8 81 -24 117 -34 36 -11 366 -110 735 -221
369 -110 684 -205 700 -209 17 -5 76 -22 133 -39 173 -52 293 -88 387 -116 98
-29 105 -32 84 -39 -8 -3 -228 -75 -489 -161 l-475 -156 0 -396 c0 -341 2
-397 15 -404 8 -5 228 -79 488 -165 261 -86 472 -157 470 -159 -2 -1 -210 -64
-463 -140 -253 -75 -487 -145 -520 -156 -33 -10 -175 -52 -315 -94 -140 -41
-275 -82 -300 -90 -25 -8 -85 -26 -135 -41 -49 -14 -110 -32 -135 -39 -25 -7
-115 -34 -200 -60 -174 -52 -302 -91 -435 -130 -49 -14 -120 -35 -157 -47
l-68 -20 0 -539 c0 -296 4 -539 8 -539 4 0 143 45 308 99 164 54 544 180 844
279 300 99 883 291 1295 427 413 136 985 325 1273 420 l522 173 693 -229 c380
-127 699 -232 707 -234 8 -2 137 -44 285 -93 581 -193 1801 -596 1810 -598 6
-1 174 -57 375 -123 201 -67 368 -121 372 -121 3 0 6 243 6 540 l0 540 -36 10
c-20 5 -104 30 -187 55 -82 25 -157 48 -165 50 -8 2 -60 17 -115 34 -262 78
-311 93 -325 96 -8 2 -82 25 -165 50 -82 26 -174 53 -204 61 -29 8 -126 37
-215 64 -88 27 -336 101 -551 164 -214 64 -410 122 -435 130 -87 28 -249 77
-267 81 -21 4 -70 23 -63 24 3 1 70 23 150 50 80 26 298 99 485 160 l340 112
0 396 c0 341 -2 397 -15 404 -8 5 -222 77 -475 160 -253 82 -466 152 -474 155
-8 2 -12 6 -10 8 2 2 67 23 144 46 281 83 310 92 335 100 14 5 57 18 95 29 39
11 147 43 240 72 165 50 309 92 370 109 17 4 84 25 150 45 66 20 127 39 135
41 8 2 137 40 285 85 149 44 331 99 405 121 74 22 149 44 165 49 17 6 37 12
45 14 23 6 243 72 260 79 8 3 34 10 57 16 l41 10 0 540 c0 297 -2 540 -5 540
-6 0 -185 -58 -498 -161 -132 -44 -494 -163 -805 -265 -311 -102 -574 -190
-585 -194 -11 -5 -90 -32 -175 -59 -85 -27 -279 -91 -430 -141 -151 -51 -279
-93 -285 -94 -14 -3 -1177 -388 -1337 -442 l-126 -43 -584 193 c-320 106 -734
243 -918 303 -184 61 -724 239 -1200 396 -476 158 -1016 336 -1200 397 -184
60 -338 110 -342 110 -5 0 -8 -243 -8 -540z m4689 -1939 c238 -71 435 -132
438 -135 4 -3 4 -9 0 -12 -4 -5 -426 -134 -487 -149 -8 -2 -60 -18 -115 -34
-55 -17 -140 -42 -190 -56 l-90 -26 -385 116 c-212 64 -394 118 -404 120 -44
10 -86 27 -86 35 0 5 33 19 73 31 39 11 99 29 132 39 33 10 76 23 95 28 19 6
112 33 205 61 94 28 195 59 225 68 30 8 73 22 95 29 22 7 45 13 51 14 5 0 205
-58 443 -129z"/>
</g>
</svg>
