<?xml version="1.0" encoding="utf-8"?>
<!-- Generator: Adobe Illustrator 24.1.2, SVG Export Plug-In . SVG Version: 6.00 Build 0)  -->
<svg version="1.1" id="Layer_1" xmlns="http://www.w3.org/2000/svg" xmlns:xlink="http://www.w3.org/1999/xlink" x="0px" y="0px"
	 viewBox="0 0 58.44 12.44" style="enable-background:new 0 0 58.44 12.44;" xml:space="preserve">
<g>
	<path style="fill:#EAE4DA;" d="M0,0.07h1.37l1.94,6.5h0.02l1.94-6.5h1.37L3.83,8.62H2.82L0,0.07z"/>
	<path style="fill:#EAE4DA;" d="M7.56,0.07h1.3v8.54h-1.3V0.07z"/>
	<path style="fill:#EAE4DA;" d="M10.66,0.07h2.99c0.57,0,1.08,0.12,1.52,0.37c0.45,0.24,0.81,0.6,1.08,1.07
		c0.05,0.08,0.09,0.15,0.13,0.22c0.04,0.07,0.07,0.13,0.09,0.2c0.11,0.26,0.18,0.55,0.2,0.87c0.02,0.32,0.04,0.84,0.04,1.54
		c0,0.82-0.02,1.4-0.07,1.74c-0.04,0.34-0.13,0.62-0.27,0.86c-0.02,0.04-0.04,0.08-0.07,0.13s-0.05,0.09-0.08,0.13
		c-0.25,0.39-0.59,0.73-1.04,1c-0.44,0.28-0.99,0.41-1.63,0.41h-2.9V0.07z M11.95,7.39h1.55c0.37,0,0.68-0.06,0.94-0.19
		c0.26-0.12,0.47-0.31,0.64-0.56c0.02-0.02,0.03-0.05,0.05-0.08s0.03-0.05,0.05-0.08c0.1-0.18,0.17-0.4,0.19-0.66
		c0.02-0.26,0.04-0.74,0.04-1.44c0-0.71-0.02-1.22-0.05-1.51c-0.03-0.3-0.12-0.55-0.26-0.76c-0.01-0.02-0.02-0.03-0.03-0.05
		c-0.01-0.02-0.03-0.04-0.04-0.05c-0.2-0.27-0.42-0.46-0.65-0.56c-0.23-0.1-0.52-0.16-0.88-0.16h-1.55V7.39z"/>
	<path style="fill:#EAE4DA;" d="M17.18,0.07h1.37l1.94,6.5h0.02l1.94-6.5h1.37l-2.82,8.54H20L17.18,0.07z"/>
	<path style="fill:#EAE4DA;" d="M24.3,2.51c0.04-0.32,0.11-0.58,0.22-0.79c0.02-0.03,0.03-0.06,0.05-0.09
		c0.02-0.03,0.03-0.06,0.05-0.09c0.01-0.02,0.02-0.05,0.04-0.07s0.03-0.04,0.04-0.07c0.22-0.35,0.56-0.67,1-0.97
		C26.12,0.15,26.66,0,27.29,0c0.63,0,1.17,0.15,1.61,0.44c0.44,0.29,0.77,0.61,1,0.97c0.01,0.02,0.02,0.05,0.04,0.07
		s0.03,0.04,0.04,0.07C29.98,1.57,30,1.6,30.01,1.63c0.02,0.03,0.03,0.06,0.05,0.09c0.1,0.21,0.18,0.47,0.22,0.79
		s0.06,0.93,0.06,1.84c0,0.9-0.02,1.51-0.06,1.83c-0.04,0.32-0.11,0.59-0.22,0.8C30.04,7,30.03,7.03,30.01,7.06
		C30,7.09,29.98,7.12,29.96,7.15c-0.01,0.02-0.02,0.05-0.04,0.07s-0.03,0.04-0.04,0.07c-0.22,0.35-0.56,0.67-1,0.96
		s-0.98,0.43-1.61,0.43c-0.63,0-1.17-0.14-1.61-0.43s-0.77-0.61-1-0.96c-0.01-0.02-0.02-0.05-0.04-0.07s-0.03-0.04-0.04-0.07
		c-0.02-0.03-0.03-0.06-0.05-0.09C24.55,7.03,24.53,7,24.52,6.97c-0.1-0.21-0.18-0.47-0.22-0.8c-0.04-0.32-0.06-0.93-0.06-1.83
		C24.24,3.44,24.26,2.83,24.3,2.51z M25.61,5.93c0.05,0.28,0.13,0.51,0.25,0.7c0.02,0.02,0.03,0.05,0.05,0.07
		c0.02,0.02,0.04,0.05,0.05,0.07c0.14,0.17,0.31,0.31,0.53,0.44c0.22,0.12,0.48,0.19,0.79,0.19c0.3,0,0.57-0.06,0.79-0.19
		c0.22-0.12,0.4-0.27,0.53-0.44c0.02-0.02,0.03-0.05,0.05-0.07c0.02-0.02,0.04-0.05,0.05-0.07c0.12-0.18,0.2-0.42,0.25-0.7
		c0.05-0.28,0.07-0.81,0.07-1.58s-0.02-1.3-0.07-1.58c-0.05-0.28-0.13-0.51-0.25-0.7c-0.02-0.02-0.03-0.05-0.05-0.07
		c-0.02-0.02-0.04-0.05-0.05-0.07c-0.13-0.17-0.3-0.31-0.53-0.44c-0.22-0.12-0.49-0.19-0.79-0.19c-0.3,0-0.57,0.06-0.79,0.19
		c-0.22,0.12-0.4,0.27-0.53,0.44c-0.02,0.02-0.03,0.05-0.05,0.07c-0.02,0.02-0.04,0.05-0.05,0.07c-0.12,0.18-0.2,0.42-0.25,0.7
		c-0.05,0.28-0.07,0.81-0.07,1.58S25.56,5.65,25.61,5.93z"/>
	<path style="fill:#EAE4DA;" d="M34.02,5.44l-1.87,3.18h-1.46l2.62-4.38l-2.45-4.16h1.46l1.7,2.96l1.7-2.96h1.46l-2.45,4.16
		l2.62,4.38h-1.46L34.02,5.44z"/>
</g>
<g>
	<path style="fill:#EAE4DA;" d="M38.59,3.83h1.22v6.97c0,0.14,0.04,0.24,0.11,0.31c0.08,0.07,0.19,0.11,0.34,0.11h0.42v1.15h-0.54
		c-0.44,0-0.81-0.11-1.11-0.33c-0.3-0.22-0.45-0.6-0.45-1.15V3.83z"/>
	<path style="fill:#EAE4DA;" d="M44.88,11.84h-0.02c-0.13,0.21-0.31,0.36-0.53,0.46c-0.23,0.1-0.55,0.14-0.97,0.14
		c-0.68,0-1.21-0.18-1.58-0.53s-0.56-0.79-0.56-1.32c0-0.49,0.17-0.91,0.5-1.27c0.33-0.36,0.83-0.53,1.48-0.53h1.69V8.15
		c0-0.29-0.1-0.49-0.29-0.61c-0.2-0.12-0.51-0.17-0.95-0.17c-0.32,0-0.56,0.03-0.73,0.1s-0.31,0.19-0.42,0.37l-0.96-0.73
		c0.23-0.33,0.52-0.56,0.86-0.69s0.74-0.2,1.19-0.2c0.75,0,1.36,0.15,1.83,0.44c0.47,0.29,0.7,0.81,0.7,1.57v4.15h-1.22V11.84z
		 M44.88,9.8h-1.46c-0.36,0-0.63,0.07-0.8,0.2c-0.17,0.13-0.26,0.31-0.26,0.53c0,0.2,0.09,0.38,0.26,0.53
		c0.18,0.16,0.47,0.23,0.89,0.23c0.51,0,0.87-0.06,1.07-0.17c0.2-0.12,0.3-0.41,0.3-0.88V9.8z"/>
	<path style="fill:#EAE4DA;" d="M47.69,3.83h1.22v3.11c0.23-0.22,0.47-0.39,0.73-0.52s0.53-0.2,0.85-0.2c0.38,0,0.7,0.07,0.97,0.22
		c0.27,0.15,0.49,0.34,0.67,0.57c0.01,0.01,0.01,0.02,0.02,0.02s0.01,0.01,0.02,0.01c0.15,0.22,0.26,0.47,0.31,0.76
		s0.08,0.8,0.08,1.52c0,0.73-0.03,1.24-0.08,1.54c-0.06,0.3-0.16,0.55-0.31,0.76c-0.01,0-0.01,0-0.02,0.01
		c0,0.01-0.01,0.02-0.02,0.02c-0.18,0.22-0.4,0.41-0.67,0.56c-0.27,0.15-0.59,0.22-0.97,0.22c-0.31,0-0.6-0.06-0.88-0.19
		s-0.5-0.3-0.7-0.5v0.64h-1.22V3.83z M49.14,7.94C49,8.27,48.93,8.63,48.91,9.02c0,0.06,0,0.11,0,0.16c0,0.05,0,0.1,0,0.15
		c0,0.05,0,0.1,0,0.14c0,0.05,0,0.1,0,0.14c0.02,0.4,0.09,0.77,0.23,1.1c0.14,0.34,0.46,0.5,0.97,0.5c0.58,0,0.92-0.2,1.04-0.59
		s0.17-0.83,0.17-1.3c0-0.01,0-0.01,0-0.02s0-0.01,0-0.02c0-0.46-0.06-0.89-0.18-1.27c-0.12-0.38-0.46-0.58-1.03-0.58
		C49.61,7.45,49.28,7.61,49.14,7.94z"/>
	<path style="fill:#EAE4DA;" d="M54.09,10.52c0.26,0.26,0.55,0.45,0.85,0.58c0.3,0.13,0.66,0.2,1.07,0.2c0.35,0,0.64-0.07,0.86-0.2
		c0.22-0.13,0.34-0.33,0.34-0.58c0-0.22-0.07-0.37-0.22-0.45s-0.32-0.13-0.53-0.15l-1.08-0.1c-0.5-0.04-0.92-0.21-1.25-0.5
		c-0.33-0.3-0.5-0.7-0.5-1.22c0-0.62,0.22-1.08,0.65-1.4c0.44-0.32,0.97-0.47,1.61-0.47c0.54,0,0.99,0.07,1.37,0.22
		c0.38,0.15,0.72,0.35,1.01,0.61l-0.76,0.89c-0.24-0.17-0.49-0.3-0.75-0.41c-0.26-0.1-0.55-0.16-0.88-0.16
		c-0.39,0-0.66,0.07-0.82,0.21c-0.15,0.14-0.23,0.31-0.23,0.52c0,0.13,0.06,0.25,0.17,0.37c0.12,0.12,0.33,0.19,0.63,0.21l1.01,0.07
		c0.63,0.04,1.08,0.23,1.36,0.58c0.27,0.34,0.41,0.76,0.41,1.25c0,0.59-0.24,1.05-0.73,1.37c-0.48,0.32-1.08,0.49-1.79,0.49
		c-0.49,0-0.96-0.09-1.41-0.26c-0.45-0.18-0.87-0.45-1.27-0.82L54.09,10.52z"/>
</g>
</svg>
